<?xml version="1.0" encoding="UTF-8" standalone="no"?>
<!-- Created with Inkscape (http://www.inkscape.org/) -->

<svg
   xmlns:dc="http://purl.org/dc/elements/1.1/"
   xmlns:cc="http://creativecommons.org/ns#"
   xmlns:rdf="http://www.w3.org/1999/02/22-rdf-syntax-ns#"
   xmlns:svg="http://www.w3.org/2000/svg"
   xmlns="http://www.w3.org/2000/svg"
   xmlns:sodipodi="http://sodipodi.sourceforge.net/DTD/sodipodi-0.dtd"
   xmlns:inkscape="http://www.inkscape.org/namespaces/inkscape"
   width="210mm"
   height="297mm"
   viewBox="0 0 744.09448819 1052.3622047"
   id="svg2"
   version="1.1"
   inkscape:version="0.91 r13725"
   sodipodi:docname="logo+tag.svg"
   inkscape:export-filename="C:\Users\e94985\git\epawmony.com\src\main\web\images\logo+tag.png"
   inkscape:export-xdpi="90"
   inkscape:export-ydpi="90">
  <defs
     id="defs4" />
  <sodipodi:namedview
     id="base"
     pagecolor="#ffffff"
     bordercolor="#666666"
     borderopacity="1.0"
     inkscape:pageopacity="0.0"
     inkscape:pageshadow="2"
     inkscape:zoom="1"
     inkscape:cx="631.86269"
     inkscape:cy="713.71827"
     inkscape:document-units="px"
     inkscape:current-layer="layer1"
     showgrid="false"
     inkscape:window-width="1920"
     inkscape:window-height="1018"
     inkscape:window-x="1358"
     inkscape:window-y="-8"
     inkscape:window-maximized="1" />
  <metadata
     id="metadata7">
    <rdf:RDF>
      <cc:Work
         rdf:about="">
        <dc:format>image/svg+xml</dc:format>
        <dc:type
           rdf:resource="http://purl.org/dc/dcmitype/StillImage" />
        <dc:title></dc:title>
      </cc:Work>
    </rdf:RDF>
  </metadata>
  <g
     inkscape:label="Layer 1"
     inkscape:groupmode="layer"
     id="layer1">
    <g
       id="g3428"
       transform="matrix(0.58332606,0,0,0.58332606,123.59231,-55.56261)">
      <g
         inkscape:export-ydpi="90"
         inkscape:export-xdpi="90"
         id="text3336"
         style="font-style:normal;font-weight:normal;font-size:40px;line-height:125%;font-family:sans-serif;letter-spacing:0px;word-spacing:0px;fill:#000000;fill-opacity:1;stroke:none;stroke-width:1px;stroke-linecap:butt;stroke-linejoin:miter;stroke-opacity:1">
        <path
           id="path3362"
           style="font-style:normal;font-variant:normal;font-weight:normal;font-stretch:normal;font-size:90px;font-family:'Gill Sans Ultra Bold';-inkscape-font-specification:'Gill Sans Ultra Bold, ';text-align:center;text-anchor:middle;fill:#b3b3b3"
           d="m 13.473633,335.19131 0,9.27247 q -8.9208986,11.68945 -25.664063,11.68945 -13.798828,0 -22.192382,-7.64649 -8.393555,-7.69043 -8.393555,-20.21484 0,-11.90918 7.69043,-19.42383 7.734375,-7.51465 20.039062,-7.51465 6.2841797,0 11.6455078,2.10938 5.3613281,2.10937 9.2724609,6.19629 3.9111329,4.08691 5.7568363,9.49219 1.845703,5.40527 1.845703,13.18359 l -27.729492,0 q 1.49414,4.04297 5.0097652,6.32812 3.5156251,2.28516 8.0419922,2.28516 9.140625,0 14.6777346,-5.75684 z m -29.355469,-12.1289 12.788086,0 q -0.1757813,-3.95508 -1.9775391,-6.15235 -1.7578125,-2.24121 -4.6142578,-2.24121 -2.5048831,0 -4.3505861,2.15332 -1.845703,2.10938 -1.845703,6.24024 z"
           inkscape:connector-curvature="0" />
        <path
           id="path3364"
           style="font-style:normal;font-variant:normal;font-weight:normal;font-stretch:normal;font-size:90px;font-family:'Gill Sans Ultra Bold';-inkscape-font-specification:'Gill Sans Ultra Bold, ';text-align:center;text-anchor:middle;fill:#ff00ff"
           d="m 23.668945,288.30167 40.649414,0 q 12.875977,0 19.775391,6.54785 6.899414,6.5039 6.899414,16.12793 0,9.40429 -6.547852,15.99609 -6.547851,6.5918 -15.776367,6.5918 -7.690429,0 -15.336914,-5.84473 l 0,27.6416 -29.663086,0 0,-67.06054 z m 29.663086,14.50195 0,14.58984 q 1.31836,0.35157 2.460938,0.35157 3.339843,0 5.405273,-2.10938 2.06543,-2.10937 2.06543,-5.53711 0,-3.38379 -1.757813,-5.31738 -1.757812,-1.97754 -5.009765,-1.97754 l -3.164063,0 z"
           inkscape:connector-curvature="0" />
        <path
           id="path3366"
           style="font-style:normal;font-variant:normal;font-weight:normal;font-stretch:normal;font-size:90px;font-family:'Gill Sans Ultra Bold';-inkscape-font-specification:'Gill Sans Ultra Bold, ';text-align:center;text-anchor:middle;fill:#ff00ff"
           d="m 96.134766,324.20499 0,-15.90821 q 11.513674,-6.28418 26.103514,-6.28418 13.88672,0 20.47852,5.93262 6.59179,5.93262 6.59179,18.14942 l 0,29.26757 -27.1582,0 0,-3.95507 q -6.02051,4.39453 -13.22754,4.39453 -6.06445,0 -10.10742,-3.91114 -4.042969,-3.95507 -4.042969,-9.93164 0,-6.81152 5.009766,-11.07422 5.009763,-4.30664 13.095703,-4.30664 4.74609,0 9.27246,1.23047 0,-3.6914 -2.85644,-5.75683 -2.8125,-2.06543 -7.86622,-2.06543 -7.4707,0 -15.292964,4.21875 z m 26.015624,19.46777 0,-7.38281 q -2.46094,-0.83496 -4.43848,-0.83496 -2.46093,0 -3.95507,1.27441 -1.49414,1.27441 -1.49414,3.33984 0,2.15332 1.58203,3.60352 1.62597,1.4502 4.08691,1.4502 2.50488,0 4.21875,-1.4502 z"
           inkscape:connector-curvature="0" />
        <path
           id="path3368"
           style="font-style:normal;font-variant:normal;font-weight:normal;font-stretch:normal;font-size:90px;font-family:'Gill Sans Ultra Bold';-inkscape-font-specification:'Gill Sans Ultra Bold, ';text-align:center;text-anchor:middle;fill:#ff00ff"
           d="m 149.52832,302.45206 27.81738,0 5.2295,11.33789 4.74609,-11.33789 12.6123,0 4.96582,11.33789 5.36133,-11.33789 28.16895,0 -23.4668,52.91015 -15.11719,0 -6.28418,-14.50195 -6.32812,14.50195 -15.11719,0 -22.58789,-52.91015 z"
           inkscape:connector-curvature="0" />
        <path
           id="path3370"
           style="font-style:normal;font-variant:normal;font-weight:normal;font-stretch:normal;font-size:90px;font-family:'Gill Sans Ultra Bold';-inkscape-font-specification:'Gill Sans Ultra Bold, ';text-align:center;text-anchor:middle;fill:#b3b3b3"
           d="m 270.59766,302.45206 0,6.63574 q 6.59179,-7.0752 16.30371,-7.0752 11.55761,0 17.09472,9.14063 4.52637,-4.74609 9.05274,-6.94336 4.57031,-2.19727 10.2832,-2.19727 8.61328,0 13.5791,5.27344 4.96582,5.27344 4.96582,14.85352 l 0,33.22265 -25.66406,0 0,-31.59668 q 0,-2.8125 -1.40625,-4.35058 -1.3623,-1.58203 -3.60352,-1.58203 -2.50488,0 -4.96582,1.71386 l 0,35.81543 -25.66406,0 0,-31.59668 q 0,-2.76855 -1.3623,-4.35058 -1.31836,-1.58203 -3.64746,-1.58203 -2.417,0 -4.96582,1.80175 l 0,35.72754 -27.15821,0 0,-52.91015 27.15821,0 z"
           inkscape:connector-curvature="0" />
        <path
           id="path3372"
           style="font-style:normal;font-variant:normal;font-weight:normal;font-stretch:normal;font-size:90px;font-family:'Gill Sans Ultra Bold';-inkscape-font-specification:'Gill Sans Ultra Bold, ';text-align:center;text-anchor:middle;fill:#b3b3b3"
           d="m 378.79102,356.15323 q -12.56836,0 -20.74219,-7.55859 -8.12988,-7.60254 -8.12988,-19.7754 0,-12.17285 8.04199,-19.81933 8.04199,-7.64649 20.83008,-7.64649 12.87597,0 20.91796,7.64649 8.08594,7.64648 8.08594,19.81933 0,12.12891 -8.08594,19.73145 -8.04199,7.60254 -20.91796,7.60254 z m 0,-33.92578 q -2.63672,0 -4.30665,1.71386 -1.62597,1.66993 -1.62597,4.35059 0,2.68066 1.62597,4.35059 1.66993,1.66992 4.30665,1.66992 2.68066,0 4.35058,-1.66992 1.66992,-1.66993 1.66992,-4.35059 0,-2.72461 -1.66992,-4.39453 -1.66992,-1.66992 -4.35058,-1.66992 z"
           inkscape:connector-curvature="0" />
        <path
           id="path3374"
           style="font-style:normal;font-variant:normal;font-weight:normal;font-stretch:normal;font-size:90px;font-family:'Gill Sans Ultra Bold';-inkscape-font-specification:'Gill Sans Ultra Bold, ';text-align:center;text-anchor:middle;fill:#b3b3b3"
           d="m 443.30273,302.45206 0,6.63574 q 6.85547,-7.0752 16.39161,-7.0752 9.27246,0 14.19433,5.18555 4.96582,5.1416 4.96582,15.29297 l 0,32.87109 -25.66406,0 0,-30.84961 q 0,-6.59179 -5.00977,-6.59179 -2.41699,0 -4.87793,1.71386 l 0,35.72754 -27.1582,0 0,-52.91015 27.1582,0 z"
           inkscape:connector-curvature="0" />
        <path
           id="path3376"
           style="font-style:normal;font-variant:normal;font-weight:normal;font-stretch:normal;font-size:90px;font-family:'Gill Sans Ultra Bold';-inkscape-font-specification:'Gill Sans Ultra Bold, ';text-align:center;text-anchor:middle;fill:#b3b3b3"
           d="m 517.87793,370.21573 -29.53125,0 10.89844,-25.75195 -18.63282,-42.01172 27.02637,0 6.37207,14.10644 6.1084,-14.10644 26.36719,0 -28.6084,67.76367 z"
           inkscape:connector-curvature="0" />
        <path
           id="path3378"
           style="font-style:normal;font-variant:normal;font-weight:normal;font-stretch:normal;font-size:90px;font-family:'Gill Sans Ultra Bold';-inkscape-font-specification:'Gill Sans Ultra Bold, ';text-align:center;text-anchor:middle;fill:#b3b3b3"
           d="m 540.99316,342.13467 q 0,-5.93261 4.17481,-10.10742 4.21875,-4.21875 10.15137,-4.21875 5.88867,0 10.06347,4.21875 4.21875,4.17481 4.21875,10.10742 0,5.88868 -4.21875,10.10743 -4.1748,4.21875 -10.06347,4.21875 -5.93262,0 -10.15137,-4.21875 -4.17481,-4.21875 -4.17481,-10.10743 z"
           inkscape:connector-curvature="0" />
        <path
           id="path3380"
           style="font-style:normal;font-variant:normal;font-weight:normal;font-stretch:normal;font-size:90px;font-family:'Gill Sans Ultra Bold';-inkscape-font-specification:'Gill Sans Ultra Bold, ';text-align:center;text-anchor:middle;fill:#b3b3b3"
           d="m 627.78516,304.51749 0,23.20312 q -8.08594,-3.86719 -14.85352,-3.86719 -3.91113,0 -6.1084,1.27442 -2.15332,1.23047 -2.15332,3.42773 0,5.09766 9.44824,5.09766 8.08594,0 13.667,-2.76856 l 0,22.93946 q -7.95411,2.3291 -17.00684,2.3291 -15.9082,0 -24.60937,-7.64649 -8.70118,-7.64648 -8.70118,-19.42382 0,-11.77735 8.30567,-19.73145 8.30566,-7.99805 22.28027,-7.99805 9.71191,0 19.73145,3.16407 z"
           inkscape:connector-curvature="0" />
        <path
           id="path3382"
           style="font-style:normal;font-variant:normal;font-weight:normal;font-stretch:normal;font-size:90px;font-family:'Gill Sans Ultra Bold';-inkscape-font-specification:'Gill Sans Ultra Bold, ';text-align:center;text-anchor:middle;fill:#b3b3b3"
           d="m 664.96289,356.15323 q -12.56836,0 -20.74219,-7.55859 -8.12988,-7.60254 -8.12988,-19.7754 0,-12.17285 8.04199,-19.81933 8.04199,-7.64649 20.83008,-7.64649 12.87598,0 20.91797,7.64649 8.08594,7.64648 8.08594,19.81933 0,12.12891 -8.08594,19.73145 -8.04199,7.60254 -20.91797,7.60254 z m 0,-33.92578 q -2.63672,0 -4.30664,1.71386 -1.62598,1.66993 -1.62598,4.35059 0,2.68066 1.62598,4.35059 1.66992,1.66992 4.30664,1.66992 2.68066,0 4.35059,-1.66992 1.66992,-1.66993 1.66992,-4.35059 0,-2.72461 -1.66992,-4.39453 -1.66993,-1.66992 -4.35059,-1.66992 z"
           inkscape:connector-curvature="0" />
        <path
           id="path3384"
           style="font-style:normal;font-variant:normal;font-weight:normal;font-stretch:normal;font-size:90px;font-family:'Gill Sans Ultra Bold';-inkscape-font-specification:'Gill Sans Ultra Bold, ';text-align:center;text-anchor:middle;fill:#b3b3b3"
           d="m 729.38672,302.45206 0,6.63574 q 6.5918,-7.0752 16.30371,-7.0752 11.55762,0 17.09473,9.14063 4.52636,-4.74609 9.05273,-6.94336 4.57031,-2.19727 10.2832,-2.19727 8.61328,0 13.57911,5.27344 4.96582,5.27344 4.96582,14.85352 l 0,33.22265 -25.66407,0 0,-31.59668 q 0,-2.8125 -1.40625,-4.35058 -1.3623,-1.58203 -3.60351,-1.58203 -2.50489,0 -4.96582,1.71386 l 0,35.81543 -25.66407,0 0,-31.59668 q 0,-2.76855 -1.3623,-4.35058 -1.31836,-1.58203 -3.64746,-1.58203 -2.41699,0 -4.96582,1.80175 l 0,35.72754 -27.1582,0 0,-52.91015 27.1582,0 z"
           inkscape:connector-curvature="0" />
      </g>
      <path
         inkscape:export-ydpi="90"
         inkscape:export-xdpi="90"
         id="path1575"
         d="m 600.43319,174.0254 c -0.26875,0.0445 -0.54284,0.0989 -0.81367,0.16056 -10.61491,3.40028 -14.68813,14.89024 -13.85088,24.34371 0.2774,8.65209 6.34562,18.8973 16.8484,19.23613 1.52007,0.0307 3.0292,-0.32099 4.40363,-0.89887 11.54174,-5.62331 14.58712,-19.7048 10.80897,-30.40323 -1.81234,-7.0059 -9.06519,-13.81499 -17.39645,-12.43827 z m -46.25964,7.55472 c -6.76894,1.19408 -10.90831,8.30859 -10.89936,14.39874 -0.11897,12.08691 8.39448,25.77773 22.44988,27.44022 1.29844,0.0571 2.599,-0.11583 3.83177,-0.48851 8.78762,-2.76287 10.91871,-12.61726 9.16926,-20.04082 -2.08093,-9.82742 -9.77912,-20.3798 -21.49664,-21.4371 -1.07011,-0.0914 -2.08791,-0.0431 -3.05488,0.12752 z m 82.07097,21.70141 c -11.64035,2.44501 -17.73544,14.40757 -17.04869,24.60069 -0.23192,7.46293 5.75135,16.48024 14.87237,15.67553 12.54466,-2.06793 18.86926,-15.66407 17.28862,-26.2868 -0.48595,-7.11128 -6.54382,-14.90564 -15.1123,-13.98942 z m -102.48078,18.1508 c -5.00964,0.72717 -9.42737,4.22088 -10.20992,9.121 -2.08158,13.1061 9.56347,27.5165 24.44992,27.92256 6.18536,0.0195 10.69487,-5.01235 11.25465,-10.32093 1.16804,-11.34996 -7.63404,-22.9723 -19.52083,-26.22176 -1.95761,-0.64398 -4.01353,-0.78544 -5.97382,-0.50087 z m 56.80021,14.22562 c -9.80344,1.52181 -18.9301,7.59872 -24.0388,15.3455 -5.41171,8.94604 -9.34618,18.99447 -9.71809,29.29489 -1.35583,7.58145 6.20936,14.90808 14.60335,13.67299 10.13446,-1.28956 17.64308,-8.95179 27.58765,-10.95922 8.2929,-2.49032 16.65494,0.38952 24.79162,1.86619 6.9814,1.54942 15.80431,-0.8063 17.95529,-7.7263 1.41856,-6.93485 -3.70907,-13.3119 -7.96251,-18.62574 -8.23245,-8.42141 -17.01694,-17.25212 -28.76229,-21.49799 -4.72003,-1.76814 -9.66849,-2.11357 -14.45622,-1.37032 z"
         style="fill:#ff00ff;fill-opacity:1;stroke:none"
         inkscape:connector-curvature="0" />
      <text
         inkscape:export-ydpi="90"
         inkscape:export-xdpi="90"
         sodipodi:linespacing="125%"
         id="text3424"
         y="416.36221"
         x="260"
         style="font-style:normal;font-weight:normal;font-size:40px;line-height:125%;font-family:sans-serif;letter-spacing:0px;word-spacing:0px;fill:#000000;fill-opacity:1;stroke:none;stroke-width:1px;stroke-linecap:butt;stroke-linejoin:miter;stroke-opacity:1"
         xml:space="preserve"><tspan
           style="font-style:normal;font-variant:normal;font-weight:normal;font-stretch:semi-expanded;font-size:45px;font-family:'Kristen ITC';-inkscape-font-specification:'Kristen ITC Semi-Expanded'"
           y="416.36221"
           x="260"
           id="tspan3426"
           sodipodi:role="line">Find your fur-ever friend.</tspan></text>
    </g>
  </g>
</svg>
